<svg xmlns="http://www.w3.org/2000/svg" viewBox="0 0 400 400" id="Global"><path fill="#fe9526" d="M299.544 294.874c-2.176-3.807-7.341-5.167-11.148-2.992-69.881 40.244-159.342 16.588-199.584-52.479C48.84 170.338 73.04 81.421 142.921 41.179c3.807-2.176 5.167-7.342 2.991-11.148-2.175-3.808-7.342-5.167-11.148-2.992C56.997 71.904 30.077 170.881 74.671 247.561c27.735 47.857 76.408 75.864 128.072 79.67v22.297h-31.27a12.185 12.185 0 0 0-12.236 12.236A12.185 12.185 0 0 0 171.473 374h78.855a12.185 12.185 0 0 0 12.236-12.236 12.185 12.185 0 0 0-12.236-12.236h-33.445 2.175v-21.753c26.375-.544 53.023-7.614 77.496-21.753 3.806-2.447 5.166-7.341 2.99-11.148z" class="colorffbe55 svgShape"></path><path fill="#167ffc" d="M216.338 36.827c72.057 0 130.519 58.461 130.519 130.519s-58.462 130.519-130.519 130.519S85.82 239.404 85.82 167.346c0-72.057 58.461-130.519 130.518-130.519z" class="color2a94f4 svgShape"></path><path fill="#595bd4" d="M313.684 254.358c8.974-34.805 17.13-85.109-8.701-79.398-24.744 5.438-55.471 11.42-70.154 13.595-14.683 2.175-32.357-12.508-52.207-23.113-2.719-11.148-2.991-17.129 12.508-28.551 15.771-11.691 23.113 11.148 29.367 4.351 10.332-12.508 3.263-24.2 16.587-51.391 13.324-26.648 14.683-22.569 24.2-43.507-14.956-5.982-31.542-9.517-48.944-9.517-50.576 0-94.354 28.824-116.107 70.698 3.535 7.342 8.429 14.956 15.227 23.384 20.938 25.289 42.962 35.621 77.495 56.831 34.533 20.937 29.367 30.454 20.938 39.972-8.429 9.517-21.481 50.304 3.264 63.083l11.148 6.798c33.715-3.264 63.898-19.306 85.379-43.235z" class="color0b4870 svgShape"></path></svg>